<svg id="Capa_1" data-name="Capa 1" xmlns="http://www.w3.org/2000/svg" viewBox="0 0 16.16 16"><defs><style>.cls-1{fill:#fff;fill-rule:evenodd;}</style></defs><path class="cls-1" d="M35.19,34.11l-1.93,1.36a13.8,13.8,0,0,1-2.91-2.24A15.62,15.62,0,0,1,28,30.12l1.23-1a1.49,1.49,0,0,0,.35-1.82L28,24.32a1.48,1.48,0,0,0-2.27-.41l-.46.4A3.94,3.94,0,0,0,24,28.51a17.84,17.84,0,0,0,4.26,6.8,15.38,15.38,0,0,0,7,4.12,3.79,3.79,0,0,0,3.33-.8l.87-.71A1.44,1.44,0,0,0,40,36.67a1.47,1.47,0,0,0-.71-1.16L36.79,34A1.47,1.47,0,0,0,35.19,34.11Z" transform="translate(-23.82 -23.54)"/></svg>