<?xml version="1.0" encoding="UTF-8"?>
<svg id="Capa_1" data-name="Capa 1" xmlns="http://www.w3.org/2000/svg" viewBox="0 0 1920 1080">
  <defs>
    <style>
      .cls-1 {
        fill: #4d8e5f;
      }

      .cls-1, .cls-2 {
        opacity: .32;
        stroke-width: 0px;
      }

      .cls-2 {
        fill: #2e358b;
      }
    </style>
  </defs>
  <path class="cls-1" d="m1875.05,114.18s-105.57,268.88-430.95,127.29c0,0,154.44-333.94,430.95-127.29Z"/>
  <path class="cls-2" d="m1887.39,96.24s11.52,288.63-343.33,289.9c0,0,7.05-367.86,343.33-289.9Z"/>
  <path class="cls-1" d="m1811.85,1009.14s-159.1-3.08-148.23-198.26c0,0,202.06,15.88,148.23,198.26Z"/>
  <path class="cls-2" d="m1823.48,1012.08s-146.9,61.19-215.46-121.88c0,0,191.38-66.75,215.46,121.88Z"/>
  <path class="cls-1" d="m51.13,225.57s270.52-43.57,311.94,290.48c0,0-347.24,35.05-311.94-290.48Z"/>
  <path class="cls-2" d="m30.53,224.15s230.14-148.71,402.44,140.45c0,0-303.8,171.78-402.44-140.45Z"/>
  <path class="cls-1" d="m660.48,68.14s157.34,23.8,121.11,215.9c0,0-198.27-42.09-121.11-215.9Z"/>
  <path class="cls-2" d="m649.33,63.71s153.62-41.51,197.73,148.94c0,0-198.45,41.23-197.73-148.94Z"/>
  <path class="cls-1" d="m968.46,1017.77s16.7-110.43,151.54-85c0,0-29.54,139.16-151.54,85Z"/>
  <path class="cls-2" d="m965.35,1025.59s-29.13-107.82,104.54-138.78c0,0,28.94,139.29-104.54,138.78Z"/>
  <path class="cls-1" d="m137.5,966.7s105.16-267.83,429.27-126.8c0,0-153.84,332.64-429.27,126.8Z"/>
  <path class="cls-2" d="m125.21,984.57s-11.47-287.51,342-288.78c0,0-7.03,366.42-342,288.78Z"/>
</svg>