<?xml version="1.0" encoding="UTF-8"?>
<svg id="Capa_2" data-name="Capa 2" xmlns="http://www.w3.org/2000/svg" viewBox="0 0 41.11 56">
  <defs>
    <style>
      .cls-1 {
        fill: #ddd;
      }

      .cls-1, .cls-2, .cls-3 {
        stroke-width: 0px;
      }

      .cls-2 {
        fill: #2d3190;
      }

      .cls-3 {
        fill: #4d8e5f;
      }
    </style>
  </defs>
  <g id="Capa_2-2" data-name="Capa 2">
    <g>
      <g>
        <path class="cls-1" d="m20.64,55.15c-.58,0-1.16-.14-1.68-.41L2.94,46.37c-1.28-.67-2.08-2.01-2.08-3.5V7.82c0-1.64.99-3.12,2.47-3.68C14.76-.24,26.36-.24,37.8,4.13c1.47.56,2.47,2.04,2.47,3.68v35.05c0,1.49-.79,2.83-2.07,3.5l-15.85,8.35c-.53.28-1.12.42-1.7.42h0Z"/>
        <path class="cls-2" d="m20.64,56c-.72,0-1.44-.18-2.08-.51L2.54,47.13c-1.57-.82-2.54-2.45-2.54-4.26V7.82c0-1.99,1.21-3.79,3.01-4.48C14.65-1.11,26.46-1.11,38.09,3.34c1.8.69,3.01,2.49,3.01,4.48v35.05c0,1.81-.97,3.43-2.52,4.26l-15.85,8.35c-.64.34-1.37.52-2.1.52h0Zm-.08-54.29c-5.66,0-11.31,1.07-16.93,3.22-1.15.44-1.92,1.6-1.92,2.88v35.05c0,1.17.62,2.23,1.62,2.75l16.02,8.36c.8.42,1.79.42,2.59,0l15.85-8.35c.99-.53,1.61-1.58,1.61-2.74V7.82c0-1.29-.77-2.45-1.92-2.88-5.62-2.15-11.27-3.22-16.93-3.22h0Z"/>
      </g>
      <path class="cls-3" d="m31.33,17.73c-1.59.31-2.89,1.28-3.66,2.57,1.19.92,2.76,1.34,4.35,1.03s2.89-1.28,3.66-2.57c-1.19-.92-2.76-1.34-4.35-1.03Z"/>
      <path class="cls-3" d="m25.42,13.51c-2.37,0-4.5,1.04-5.96,2.69,1.46,1.65,3.59,2.69,5.96,2.69s4.5-1.04,5.96-2.69c-1.46-1.65-3.59-2.69-5.96-2.69Z"/>
      <path class="cls-3" d="m11.45,21.4c-1.17,1.52-1.55,3.4-1.22,5.15,1.78-.12,3.49-.98,4.66-2.5s1.55-3.4,1.22-5.15c-1.78.12-3.49.98-4.66,2.5h0Z"/>
      <path class="cls-3" d="m32.29,12.66c-.9.11-1.65.6-2.13,1.29.63.56,1.48.85,2.38.74s1.65-.6,2.13-1.29c-.63-.56-1.48-.85-2.38-.74Z"/>
      <path class="cls-3" d="m9.13,19.25c-.9.11-1.65.6-2.13,1.29.63.56,1.48.85,2.38.74s1.65-.6,2.13-1.29c-.63-.56-1.48-.85-2.38-.74Z"/>
      <path class="cls-3" d="m20.8,7.42c.02-.91-.36-1.72-.98-2.29-.64.54-1.05,1.35-1.07,2.25s.36,1.72.98,2.29c.64-.54,1.05-1.35,1.07-2.25Z"/>
      <path class="cls-3" d="m13.02,9.12c-.48-.77-1.24-1.25-2.07-1.39-.24.81-.14,1.7.33,2.47s1.24,1.25,2.07,1.39c.24-.81.14-1.7-.33-2.47Z"/>
      <path class="cls-3" d="m9.49,15.12c1.66,0,3.15-.73,4.17-1.88-1.02-1.15-2.51-1.88-4.17-1.88s-3.15.73-4.17,1.88c1.02,1.15,2.51,1.88,4.17,1.88Z"/>
      <path class="cls-3" d="m21.49,9.33c-1.21,1.21-1.77,2.84-1.68,4.42,1.59.1,3.21-.46,4.42-1.68,1.21-1.21,1.77-2.84,1.68-4.42-1.59-.1-3.21.46-4.42,1.68Z"/>
      <path class="cls-3" d="m28.41,10.31c-1.07.39-1.86,1.21-2.24,2.19.93.5,2.06.62,3.12.23s1.86-1.21,2.24-2.19c-.93-.5-2.06-.62-3.12-.23Z"/>
      <path class="cls-3" d="m17.22,21.95c-.02,1.47.6,2.8,1.61,3.72,1.04-.89,1.7-2.2,1.72-3.67s-.6-2.8-1.61-3.72c-1.04.89-1.7,2.2-1.72,3.67Z"/>
      <path class="cls-3" d="m30.28,23.04c-1.02-1.15-2.44-1.74-3.86-1.74-.17,1.41.24,2.89,1.26,4.04,1.02,1.15,2.44,1.74,3.86,1.74.17-1.41-.24-2.89-1.26-4.04h0Z"/>
      <path class="cls-3" d="m14.64,11.22c.98,1.6,2.56,2.61,4.28,2.91.51-1.67.33-3.54-.66-5.14-.98-1.6-2.56-2.61-4.28-2.91-.51,1.67-.33,3.54.66,5.14Z"/>
      <path class="cls-3" d="m15.47,16.54c.87.87,2.03,1.27,3.17,1.2.07-1.14-.33-2.3-1.2-3.17s-2.03-1.27-3.17-1.2c-.07,1.14.33,2.3,1.2,3.17Z"/>
      <path class="cls-3" d="m22.34,22.53c1.03,1.03,2.41,1.51,3.76,1.43.08-1.35-.39-2.73-1.43-3.76s-2.41-1.51-3.76-1.43c-.08,1.35.39,2.73,1.43,3.76Z"/>
      <path class="cls-3" d="m11.48,18.87c1.36.11,2.62-.39,3.54-1.26-.76-1.01-1.93-1.7-3.29-1.81s-2.63.39-3.54,1.26c.76,1.01,1.93,1.7,3.29,1.81Z"/>
      <path class="cls-3" d="m23.53,27.88c-1.96,3.74-.89,7.93.58,11.06-1.39,1.05-2.64,2.37-3.55,4.01-.98-1.79-2.38-3.19-3.92-4.28,2.34-4.27-.09-12.19-1.76-12.82.46-.2,1.43-1.33,1.39-1.77,1.35.77,1.85,2.4,2.21,3.2.32.9,1.06,1.48,1.78,1.49.31,0,.42-.42.16-.58-1.01-.6-1.47-1.81-1.47-1.81.76-.24,1.16-1.01,1.16-1.01.46,1.33,1.83,2.06,1.83,2.06.46-1.78,1.56-3.14,1.56-3.14.95.81,2.15.54,2.24.52-.07.05-1.17.83-1.97,2.62-.08.14-.16.29-.24.45h0Z"/>
      <path class="cls-2" d="m37.57,39.94c-1.34.11-2.57.26-3.72.45-7.66,1.27-11.19,4.2-12.51,5.64-.47.51-.66.83-.66.83,0,0-.19-.32-.67-.83-1.34-1.44-4.93-4.37-12.69-5.64-1.16-.19-2.4-.34-3.74-.45-.24-.02-.47-.04-.71-.05l.71,1.44,1.55,3.12,15.1,7.88c.14.07.28.11.43.11s.3-.04.44-.11l14.9-7.85,1.57-3.21.67-1.37c-.23.01-.45.03-.67.05Z"/>
      <g>
        <path class="cls-2" d="m35.32,35.86s-11.77,1.04-14.48,9.26c1.61-1.58,5.3-4.6,12.58-5.94l1.89-3.33h0Z"/>
        <path class="cls-2" d="m5.79,35.86s11.77,1.04,14.48,9.26c-1.61-1.58-5.3-4.6-12.58-5.94l-1.89-3.33h0Z"/>
      </g>
    </g>
  </g>
</svg>