<svg id="Capa_1" data-name="Capa 1" xmlns="http://www.w3.org/2000/svg" viewBox="0 0 16 16"><defs><style>.cls-1{fill:#fff;fill-rule:evenodd;}</style></defs><path class="cls-1" d="M25.76,31.9a6.33,6.33,0,1,1,6.32,6.47,6.24,6.24,0,0,1-3.38-1,.73.73,0,0,0-.61-.09L26,37.94,26.76,36a.79.79,0,0,0-.06-.7,6.56,6.56,0,0,1-.94-3.41Zm6.32-8a7.91,7.91,0,0,0-7.81,8,8.1,8.1,0,0,0,1,3.86L24,38.83a.75.75,0,0,0,.13.81.71.71,0,0,0,.76.22l3.35-1a7.68,7.68,0,0,0,3.88,1.06,8,8,0,0,0,0-16Zm1.71,9.66-1,.7a6.74,6.74,0,0,1-1.47-1.16,7.7,7.7,0,0,1-1.21-1.61l.62-.54a.78.78,0,0,0,.18-.94l-.8-1.52a.72.72,0,0,0-.52-.39.74.74,0,0,0-.62.17l-.24.21a2.07,2.07,0,0,0-.62,2.18,9.18,9.18,0,0,0,2.16,3.52,7.76,7.76,0,0,0,3.52,2.14,1.89,1.89,0,0,0,1.69-.42l.44-.37a.77.77,0,0,0-.09-1.24l-1.25-.76a.73.73,0,0,0-.81,0Z" transform="translate(-23.9 -23.9)"/></svg>