<?xml version="1.0" encoding="utf-8"?>
<!-- Generator: Adobe Illustrator 25.2.1, SVG Export Plug-In . SVG Version: 6.00 Build 0)  -->
<svg version="1.1" id="Capa_2_1_" xmlns="http://www.w3.org/2000/svg" xmlns:xlink="http://www.w3.org/1999/xlink" x="0px" y="0px"
	 viewBox="0 0 94 165" style="enable-background:new 0 0 94 165;" xml:space="preserve">
<style type="text/css">
	.st0{fill:#DDDDDD;}
	.st1{fill:#2D3190;}
	.st2{fill:#FFFFFF;}
	.st3{fill:#4D8E5F;}
</style>
<g>
	<path class="st0" d="M47.2,163.1c-1.3,0-2.7-0.3-3.8-0.9L6.7,143c-2.9-1.5-4.8-4.6-4.8-8V54.9c0-3.8,2.3-7.1,5.6-8.4
		c26.1-10,52.7-10,78.8,0c3.4,1.3,5.6,4.7,5.6,8.4V135c0,3.4-1.8,6.5-4.7,8l-36.2,19.1C49.9,162.7,48.5,163,47.2,163.1L47.2,163.1z"
		/>
	<path class="st1" d="M47.2,165c-1.7,0-3.3-0.4-4.8-1.2L5.8,144.7C2.2,142.9,0,139.1,0,135V54.9c0-4.5,2.8-8.7,6.9-10.2
		c26.6-10.2,53.6-10.2,80.2,0c4.1,1.6,6.9,5.7,6.9,10.2V135c0,4.1-2.2,7.9-5.8,9.7L52,163.8C50.5,164.6,48.8,165,47.2,165L47.2,165z
		 M47,40.9c-12.9,0-25.9,2.5-38.7,7.4c-2.6,1-4.4,3.7-4.4,6.6V135c0,2.7,1.4,5.1,3.7,6.3l36.6,19.1c1.8,0.9,4.1,0.9,5.9,0l36.2-19.1
		c2.3-1.2,3.7-3.6,3.7-6.3V54.9c0-2.9-1.8-5.6-4.4-6.6C72.8,43.4,59.9,40.9,47,40.9L47,40.9z"/>
</g>
<g>
	<g>
		<path class="st2" d="M14.3,12.8c0.6,2.2-0.8,3.8-4.2,4.9c-1,0.3-2.1,0.6-3.2,0.8L6,15l-2.5-8l4.1-1.2c1.2-0.3,2.2-0.4,3-0.1
			s1.3,0.9,1.6,1.8c0.2,0.6,0.2,1.2,0,1.8c-0.2,0.6-0.5,1-1,1.4C12.8,10.6,13.9,11.3,14.3,12.8L14.3,12.8z M9,7.6
			C8.6,7.5,8,7.5,7.3,7.7L6.4,8l0.8,3.1l1.7-0.4c0.8-0.5,1.1-1.2,0.8-2.1C9.6,8.1,9.4,7.7,9,7.6L9,7.6z M11.5,14.8
			c0.3-0.4,0.4-0.9,0.2-1.5c-0.2-0.8-0.9-1.2-2.1-1.1l-2,0.6l0.4,1.3L8.7,16c0.4-0.1,0.9-0.2,1.2-0.3C10.7,15.5,11.2,15.2,11.5,14.8
			L11.5,14.8z"/>
		<path class="st2" d="M24.1,12.2l0.2,1.9L17,15.6l-0.6-3.5l-1.9-8.2l7.4-1.6l0.2,0.2l0.2,1.9l-2.8,0.5l-2.1,0.5l0.5,2.8l2-0.4
			l1.9-0.5L22,7.5l0.2,1.9l-2.1,0.4l-1.9,0.4l0.2,1.3l0.4,1.8l2-0.4l2.9-0.7L24.1,12.2L24.1,12.2z"/>
		<path class="st2" d="M35,11.9v0.3c-0.8,0.4-1.5,0.7-2.4,0.8l-0.3-0.2c-1.1-1.4-2-2.6-2.7-3.7l-1.8,0.2l0,0.2l0.6,3.7L26,13.7
			l-0.4-3.6l-1.3-8.3l4.5-0.6c1.2-0.2,2.2,0,3,0.5c0.8,0.5,1.2,1.3,1.4,2.5c0.1,0.8,0,1.5-0.3,2.2s-0.8,1.3-1.4,1.8
			C32.8,9.6,33.9,10.8,35,11.9L35,11.9z M29.5,7.3c1-0.5,1.4-1.3,1.2-2.5c-0.1-0.6-0.3-1.1-0.7-1.3c-0.4-0.3-0.9-0.4-1.6-0.3
			l-1.2,0.2l0.5,4L29.5,7.3L29.5,7.3z"/>
		<path class="st2" d="M43.1,2.1l-2.2,0l-0.7,0l0.3,6.2l0.3,3.8l-2.5,0.2l-0.1-3.6l-0.5-6.4l-0.7,0l-2.3,0.2l-0.2-0.2l0-1.9L43,0.1
			l0.2,0.2L43.1,2.1L43.1,2.1z"/>
		<path class="st2" d="M54.5,11.5l0,0.3c-0.8,0.3-1.6,0.4-2.5,0.5L51.7,12c-0.9-1.6-1.6-2.9-2.1-4l-1.8,0v0.2l0,3.8l-2.5,0l0.2-3.6
			V0l4.6,0.1c1.2,0,2.2,0.3,2.9,1c0.7,0.6,1,1.5,1,2.6c0,0.8-0.2,1.5-0.6,2.1c-0.4,0.6-1,1.2-1.7,1.5C52.6,8.8,53.6,10.2,54.5,11.5
			L54.5,11.5z M49.7,6.1c1.1-0.3,1.6-1.1,1.6-2.3c0-0.6-0.2-1.1-0.5-1.4S50,1.9,49.3,1.9L48,1.9L47.9,6L49.7,6.1L49.7,6.1z"/>
		<path class="st2" d="M62.8,12.9l-0.1-1.6l-0.2-1.1l-2.3-0.3l-2.1-0.1l-0.4,0.9l-0.5,1.6l-2.5-0.2l5.2-11.5l3,0.3l2.5,12.2
			C65.4,13.1,62.8,12.9,62.8,12.9z M61.2,3.1l-0.2,0l-2.1,4.8l1.6,0.2l1.6,0.1L61.2,3.1L61.2,3.1z"/>
		<path class="st2" d="M76.6,15.2L74,14.7l-3.3-8.9l-0.2,0l-0.8,3.9l-0.7,4.1l-2.3-0.4l0.8-3.4l1.5-8.3l2.7,0.5L75,11l0.2,0l1.4-7.8
			l2.3,0.3l-1.7,8.1L76.6,15.2L76.6,15.2z"/>
		<path class="st2" d="M90.6,8.1c0.6,1.2,0.7,2.6,0.2,4.4c-0.6,2-1.5,3.4-2.8,4.2c-1.3,0.8-2.9,0.9-4.8,0.4c-1.3-0.4-2.6-0.8-4-1.3
			l1.1-3.4l2.2-8.1l4.6,1.2C88.8,6.1,90,6.9,90.6,8.1L90.6,8.1z M88.1,12.3c0.4-1.4,0.5-2.5,0.2-3.3s-0.9-1.3-1.9-1.6
			c-0.6-0.2-1.3-0.3-2-0.5l-1.8,5.9l-0.4,1.8c0.8,0.3,1.5,0.6,2,0.7C86.1,15.9,87.4,14.9,88.1,12.3z"/>
	</g>
	<g>
		<path class="st2" d="M18.5,35.3l0,0.4c-0.9,0.7-1.9,1.2-3,1.5l-0.4-0.2c-1.7-1.6-3.1-3.1-4.2-4.3l-2.3,0.6l0.1,0.3l1.5,4.8
			l-3.2,0.9L6,34.7L2.8,24.1l5.8-1.6c1.6-0.4,2.9-0.4,4,0.1c1.1,0.5,1.8,1.5,2.2,3c0.3,1,0.3,1.9,0,2.9c-0.3,1-0.8,1.8-1.5,2.6
			C15.1,32.7,16.9,34.1,18.5,35.3L18.5,35.3z M10.5,30.3c1.2-0.8,1.6-2,1.2-3.5c-0.2-0.8-0.6-1.4-1.1-1.6c-0.6-0.3-1.3-0.3-2.2-0.1
			l-1.6,0.5l1.4,5.2L10.5,30.3L10.5,30.3z"/>
		<path class="st2" d="M31.3,28.2c0.3,1.9,0,3.4-0.9,4.6s-2.4,2-4.5,2.3c-2,0.3-3.5,0.1-4.8-0.7s-1.9-2.1-2.2-4l-0.4-2.2l-1.4-7.8
			l3.3-0.5l1.5,9.7c0.4,2.3,1.6,3.3,3.7,2.9c2.1-0.3,3-1.6,2.6-3.8l-1.8-9.8l3.3-0.6l1.2,7.9L31.3,28.2L31.3,28.2z"/>
		<path class="st2" d="M43.5,17.8l-0.4,2.9l-0.5,0.2c-0.6-0.4-1.2-0.6-1.8-0.8s-1.2-0.3-1.7-0.2c-0.7,0-1.2,0.2-1.5,0.6
			c-0.4,0.4-0.5,0.8-0.5,1.2c0,0.5,0.3,0.9,0.7,1.2s1.2,0.6,2.1,1c0.9,0.4,1.7,0.7,2.3,1c0.6,0.3,1.1,0.8,1.5,1.3
			c0.4,0.5,0.7,1.2,0.7,2.1c0.1,0.9-0.1,1.7-0.6,2.5c-0.4,0.8-1.1,1.4-2,1.9c-0.9,0.5-1.9,0.8-3.1,0.8c-1.5,0.1-3.1-0.1-4.7-0.7
			l0.3-3.1l0.4-0.2c0.7,0.5,1.4,0.9,2.2,1.2c0.8,0.2,1.5,0.4,2.1,0.3c0.7,0,1.3-0.2,1.7-0.6s0.5-0.8,0.5-1.3c0-0.5-0.3-0.9-0.7-1.2
			s-1.2-0.6-2.2-1c-0.9-0.3-1.7-0.7-2.2-1c-0.6-0.3-1.1-0.7-1.5-1.3c-0.4-0.5-0.7-1.2-0.7-2c-0.1-0.9,0.1-1.8,0.6-2.5
			c0.4-0.8,1.1-1.4,2-1.9s1.8-0.8,3-0.8C40.8,17.2,42.1,17.3,43.5,17.8L43.5,17.8z"/>
		<path class="st2" d="M56.7,18.1l-0.6,2.9l-0.5,0.2c-0.5-0.4-1.1-0.7-1.7-1s-1.1-0.4-1.6-0.4c-0.7,0-1.2,0.1-1.6,0.5
			c-0.4,0.3-0.6,0.7-0.6,1.2c0,0.5,0.2,0.9,0.6,1.2c0.4,0.3,1.1,0.8,2,1.2c0.9,0.4,1.6,0.8,2.2,1.2s1,0.9,1.4,1.4
			c0.4,0.6,0.6,1.3,0.5,2.1c0,0.9-0.3,1.7-0.8,2.4c-0.5,0.7-1.2,1.3-2.1,1.7c-0.9,0.4-2,0.6-3.1,0.5c-1.5,0-3.1-0.4-4.7-1.2l0.6-3.1
			l0.4-0.2c0.6,0.6,1.3,1,2.1,1.4s1.5,0.5,2.1,0.5c0.7,0,1.3-0.1,1.7-0.5c0.4-0.3,0.6-0.8,0.6-1.2c0-0.5-0.2-1-0.6-1.3
			s-1.1-0.8-2.1-1.2c-0.9-0.4-1.6-0.8-2.1-1.2c-0.5-0.4-1-0.8-1.4-1.4c-0.4-0.6-0.5-1.3-0.5-2.1c0-0.9,0.3-1.7,0.8-2.5
			c0.5-0.7,1.2-1.3,2.1-1.7s1.9-0.6,3-0.5C54.1,17.2,55.4,17.5,56.7,18.1L56.7,18.1z"/>
		<path class="st2" d="M69.4,32.3l-0.5,2.4L59,33.5l0.8-4.7l1.2-11l9.9,1.2l0.2,0.3l-0.6,2.4l-3.7-0.6L64,20.8l-0.5,3.8l2.7,0.4
			l2.6,0.2l0.2,0.3L68.3,28l-2.8-0.4L63,27.2l-0.2,1.7l-0.2,2.4l2.8,0.4l3.9,0.3L69.4,32.3L69.4,32.3z"/>
		<path class="st2" d="M79.3,36.9L71,35.1l1.1-4.6l2.1-10.9l3.3,0.7l-2.4,10.5l-0.4,2.2l5.2,1.1l0.1,0.3L79.3,36.9L79.3,36.9z"/>
		<path class="st2" d="M89.2,39.8L81,37.4l1.5-4.5l2.9-10.7l3.2,1l-3.2,10.3l-0.6,2.2l5.1,1.5l0.1,0.3L89.2,39.8L89.2,39.8z"/>
	</g>
</g>
<path class="st3" d="M71.6,77.5c-3.6,0.7-6.6,2.9-8.4,5.9c2.7,2.1,6.3,3.1,9.9,2.4s6.6-2.9,8.4-5.9C78.8,77.8,75.3,76.8,71.6,77.5z"
	/>
<path class="st3" d="M58.1,67.9c-5.4,0-10.3,2.4-13.6,6.1c3.3,3.8,8.2,6.1,13.6,6.1s10.3-2.4,13.6-6.1
	C68.4,70.3,63.5,67.9,58.1,67.9z"/>
<path class="st3" d="M26.2,85.9c-2.7,3.5-3.5,7.8-2.8,11.8c4.1-0.3,8-2.2,10.7-5.7s3.5-7.8,2.8-11.8C32.8,80.5,28.8,82.4,26.2,85.9
	L26.2,85.9z"/>
<path class="st3" d="M73.8,65.9c-2.1,0.2-3.8,1.4-4.9,2.9c1.4,1.3,3.4,1.9,5.4,1.7s3.8-1.4,4.9-2.9C77.8,66.4,75.9,65.7,73.8,65.9z"
	/>
<path class="st3" d="M20.9,81c-2,0.2-3.8,1.4-4.9,2.9c1.4,1.3,3.4,1.9,5.4,1.7s3.8-1.4,4.9-2.9C24.9,81.4,22.9,80.8,20.9,81z"/>
<path class="st3" d="M47.5,54c0-2.1-0.8-3.9-2.2-5.2c-1.5,1.2-2.4,3.1-2.4,5.1s0.8,3.9,2.2,5.2C46.6,57.9,47.5,56,47.5,54z"/>
<path class="st3" d="M29.8,57.8c-1.1-1.8-2.8-2.8-4.7-3.2c-0.5,1.8-0.3,3.9,0.8,5.6s2.8,2.8,4.7,3.2C31.1,61.6,30.8,59.6,29.8,57.8z
	"/>
<path class="st3" d="M21.7,71.6c3.8,0,7.2-1.7,9.5-4.3c-2.3-2.6-5.7-4.3-9.5-4.3s-7.2,1.7-9.5,4.3C14.5,69.9,17.9,71.6,21.7,71.6z"
	/>
<path class="st3" d="M49.1,58.3c-2.8,2.8-4,6.5-3.8,10.1c3.6,0.2,7.3-1.1,10.1-3.8c2.8-2.8,4-6.5,3.8-10.1
	C55.6,54.3,51.9,55.5,49.1,58.3z"/>
<path class="st3" d="M64.9,60.6c-2.4,0.9-4.2,2.8-5.1,5c2.1,1.1,4.7,1.4,7.1,0.5s4.2-2.8,5.1-5C70,59.9,67.4,59.7,64.9,60.6z"/>
<path class="st3" d="M39.4,87.2c0,3.4,1.4,6.4,3.7,8.5c2.4-2,3.9-5,3.9-8.4s-1.4-6.4-3.7-8.5C40.9,80.8,39.4,83.8,39.4,87.2z"/>
<path class="st3" d="M69.2,89.7c-2.3-2.6-5.6-4-8.8-4c-0.4,3.2,0.5,6.6,2.9,9.2c2.3,2.6,5.6,4,8.8,4C72.5,95.7,71.5,92.3,69.2,89.7
	L69.2,89.7z"/>
<path class="st3" d="M33.5,62.6c2.2,3.7,5.9,6,9.8,6.7c1.2-3.8,0.8-8.1-1.5-11.7c-2.2-3.7-5.9-6-9.8-6.7
	C30.8,54.7,31.2,59,33.5,62.6z"/>
<path class="st3" d="M35.3,74.8c2,2,4.6,2.9,7.2,2.7c0.2-2.6-0.8-5.2-2.7-7.2s-4.6-2.9-7.2-2.7C32.4,70.2,33.4,72.8,35.3,74.8z"/>
<path class="st3" d="M51.1,88.5c2.4,2.4,5.5,3.4,8.6,3.3c0.2-3.1-0.9-6.2-3.3-8.6s-5.5-3.4-8.6-3.3C47.6,83,48.7,86.2,51.1,88.5z"/>
<path class="st3" d="M26.2,80.1c3.1,0.2,6-0.9,8.1-2.9c-1.7-2.3-4.4-3.9-7.5-4.1s-6,0.9-8.1,2.9C20.5,78.3,23.1,79.9,26.2,80.1z"/>
<path class="st3" d="M53.8,100.7c-4.5,8.6-2,18.1,1.3,25.3c-3.2,2.4-6,5.4-8.1,9.2c-2.2-4.1-5.4-7.3-9-9.8c5.3-9.8-0.2-27.9-4-29.3
	c1-0.5,3.3-3,3.2-4c3.1,1.8,4.2,5.5,5.1,7.3c0.7,2.1,2.4,3.4,4.1,3.4c0.7,0,1-1,0.4-1.3c-2.3-1.4-3.3-4.1-3.3-4.1
	C45,96.8,46,95,46,95c1,3,4.2,4.7,4.2,4.7c1-4.1,3.6-7.2,3.6-7.2c2.2,1.8,4.9,1.2,5.1,1.2c-0.2,0.1-2.7,1.9-4.5,6
	C54.1,100,54,100.4,53.8,100.7L53.8,100.7z"/>
<path class="st1" d="M85.9,128.3c-3.1,0.2-5.9,0.6-8.5,1c-17.5,2.9-25.6,9.6-28.6,12.9c-1.1,1.2-1.5,1.9-1.5,1.9s-0.4-0.7-1.5-1.9
	c-3.1-3.3-11.3-10-29-12.9c-2.6-0.4-5.5-0.8-8.6-1c-0.5,0-1.1-0.1-1.6-0.1l1.6,3.3l3.5,7.1l34.5,18c0.3,0.2,0.7,0.2,1,0.2
	s0.7-0.1,1-0.2l34.1-17.9l3.6-7.3l1.5-3.1C86.9,128.2,86.4,128.3,85.9,128.3z"/>
<g>
	<path class="st1" d="M80.7,119c0,0-26.9,2.4-33.1,21.2c3.7-3.6,12.1-10.5,28.8-13.6L80.7,119L80.7,119z"/>
	<path class="st1" d="M13.2,119c0,0,26.9,2.4,33.1,21.2c-3.7-3.6-12.1-10.5-28.8-13.6L13.2,119L13.2,119z"/>
</g>
</svg>
